<svg width="106" height="24" viewBox="0 0 106 24" fill="none" xmlns="http://www.w3.org/2000/svg">
<path d="M13 22.2338V11.4338L3.9436 6L12 1.16618L21 6.56618V17.4338L13 22.2338Z" fill="#95A8BE"/>
<path d="M3 17.4338V7.76624L6 9.56624V15.5662L11 18.5662V22.2338L3 17.4338Z" fill="#95A8BE"/>
<path fill-rule="evenodd" clip-rule="evenodd" d="M35.1712 5V15.9583H39.4019V17.9991H33V5H35.1712ZM46.9826 8.92279H49.0886V17.9991H46.9826V17.0486C46.1191 17.8562 45.1904 18.26 44.1964 18.26C42.9415 18.26 41.904 17.8065 41.084 16.8995C40.2701 15.9738 39.8632 14.8183 39.8632 13.433C39.8632 12.0725 40.2701 10.9387 41.084 10.0317C41.8978 9.12468 42.9166 8.67119 44.1405 8.67119C45.1966 8.67119 46.144 9.10605 46.9826 9.97579V8.92279ZM42.0065 13.433C42.0065 14.3027 42.2395 15.0109 42.7054 15.5576C43.1838 16.1105 43.7864 16.387 44.5132 16.387C45.2898 16.387 45.9172 16.1198 46.3956 15.5856C46.8739 15.0327 47.1131 14.3307 47.1131 13.4796C47.1131 12.6285 46.8739 11.9265 46.3956 11.3736C45.9172 10.8331 45.296 10.5629 44.5318 10.5629C43.8112 10.5629 43.2086 10.8362 42.724 11.3829C42.2457 11.9358 42.0065 12.6192 42.0065 13.433ZM53.0631 4V9.97579C53.9018 9.10605 54.8523 8.67119 55.9146 8.67119C57.1384 8.67119 58.1573 9.12779 58.9711 10.041C59.7849 10.948 60.1918 12.0787 60.1918 13.433C60.1918 14.8308 59.7818 15.9863 58.9618 16.8995C58.1479 17.8065 57.1198 18.26 55.8773 18.26C54.8274 18.26 53.8894 17.8562 53.0631 17.0486V17.9991H50.9664V4H53.0631ZM58.0485 13.5262C58.0485 12.6564 57.8125 11.9482 57.3403 11.4015C56.862 10.8424 56.2625 10.5629 55.5419 10.5629C54.7715 10.5629 54.1441 10.8331 53.6595 11.3736C53.1811 11.9078 52.942 12.6036 52.942 13.4609C52.942 14.3431 53.178 15.0482 53.6502 15.5763C54.1223 16.1167 54.7436 16.387 55.5139 16.387C56.2407 16.387 56.8433 16.1167 57.3217 15.5763C57.8063 15.0296 58.0485 14.3462 58.0485 13.5262ZM69.9065 13.9548H63.4022C63.4581 14.7003 63.7004 15.2936 64.129 15.7347C64.5577 16.1695 65.1075 16.387 65.7784 16.387C66.3003 16.387 66.732 16.2627 67.0737 16.0142C67.4092 15.7657 67.7912 15.306 68.2199 14.6351L69.9904 15.6228C69.7171 16.0888 69.4282 16.4879 69.1238 16.8203C68.8194 17.1526 68.4932 17.426 68.1453 17.6403C67.7974 17.8546 67.4216 18.0115 67.0178 18.1109C66.614 18.2103 66.176 18.26 65.7039 18.26C64.3496 18.26 63.2624 17.8251 62.4424 16.9554C61.6223 16.0795 61.2123 14.9177 61.2123 13.4703C61.2123 12.0352 61.6099 10.8735 62.4051 9.9851C63.2065 9.10915 64.2688 8.67119 65.592 8.67119C66.9277 8.67119 67.9838 9.09673 68.7604 9.94783C69.5307 10.7927 69.9159 11.9637 69.9159 13.4609L69.9065 13.9548ZM67.754 12.2402C67.462 11.122 66.7569 10.5629 65.6386 10.5629C65.3839 10.5629 65.1448 10.6017 64.9211 10.6793C64.6975 10.757 64.494 10.8688 64.3107 11.0148C64.1275 11.1608 63.9706 11.3363 63.8402 11.5413C63.7097 11.7463 63.6103 11.9793 63.542 12.2402H67.754ZM73.5269 4V17.9991H71.4302V4H73.5269ZM77.5107 4V9.97579C78.3494 9.10605 79.2999 8.67119 80.3622 8.67119C81.5861 8.67119 82.6049 9.12779 83.4187 10.041C84.2325 10.948 84.6394 12.0787 84.6394 13.433C84.6394 14.8308 84.2294 15.9863 83.4094 16.8995C82.5956 17.8065 81.5674 18.26 80.3249 18.26C79.275 18.26 78.337 17.8562 77.5107 17.0486V17.9991H75.414V4H77.5107ZM82.4962 13.5262C82.4962 12.6564 82.2601 11.9482 81.7879 11.4015C81.3096 10.8424 80.7101 10.5629 79.9895 10.5629C79.2191 10.5629 78.5917 10.8331 78.1071 11.3736C77.6287 11.9078 77.3896 12.6036 77.3896 13.4609C77.3896 14.3431 77.6256 15.0482 78.0978 15.5763C78.5699 16.1167 79.1912 16.387 79.9615 16.387C80.6884 16.387 81.291 16.1167 81.7693 15.5763C82.2539 15.0296 82.4962 14.3462 82.4962 13.5262ZM85.6599 13.3957C85.6599 12.0849 86.129 10.9698 87.067 10.0503C88.0051 9.1309 89.1482 8.67119 90.4963 8.67119C91.8506 8.67119 92.9999 9.134 93.9441 10.0597C94.876 10.9853 95.3419 12.1222 95.3419 13.4703C95.3419 14.8308 94.8729 15.9707 93.9348 16.8902C92.9905 17.8034 91.8319 18.26 90.459 18.26C89.0985 18.26 87.9585 17.7941 87.0391 16.8622C86.1196 15.9428 85.6599 14.7873 85.6599 13.3957ZM87.8032 13.433C87.8032 14.34 88.0455 15.0575 88.53 15.5856C89.027 16.1198 89.6824 16.387 90.4963 16.387C91.3163 16.387 91.9717 16.1229 92.4625 15.5949C92.9533 15.0668 93.1987 14.3617 93.1987 13.4796C93.1987 12.5974 92.9533 11.8923 92.4625 11.3643C91.9655 10.83 91.3101 10.5629 90.4963 10.5629C89.6949 10.5629 89.0457 10.83 88.5487 11.3643C88.0517 11.8985 87.8032 12.5881 87.8032 13.433ZM99.1487 13.0882L95.8872 8.92279H98.3846L100.407 11.5693L102.466 8.92279H105.038L101.683 13.0882L105.569 17.9991H103.072L100.407 14.6071L97.6763 17.9991H95.1137L99.1487 13.0882Z" fill="#49535F"/>
</svg>
